<svg xmlns="http://www.w3.org/2000/svg" xmlns:xlink="http://www.w3.org/1999/xlink" version="1.1" x="0px" y="0px" viewBox="0 0 24 30" enable-background="new 0 0 24 24" xml:space="preserve"><g><g><path d="M18.312,9.103l1.396-1.396l-1.414-1.414l-1.396,1.396c-1.106-0.86-2.44-1.437-3.897-1.619V4h2V2H9v2h2v2.069    C7.06,6.564,4,9.928,4,14c0,4.411,3.589,8,8,8s8-3.589,8-8C20,12.154,19.366,10.457,18.312,9.103z M12,20c-3.309,0-6-2.691-6-6    s2.691-6,6-6s6,2.691,6,6S15.309,20,12,20z"/><rect x="11" y="9" width="2" height="5"/></g></g><text x="0" y="39" fill="#000000" font-size="5px" font-weight="bold" font-family="'Helvetica Neue', Helvetica, Arial-Unicode, Arial, Sans-serif">Created by Ralf Schmitzer</text><text x="0" y="44" fill="#000000" font-size="5px" font-weight="bold" font-family="'Helvetica Neue', Helvetica, Arial-Unicode, Arial, Sans-serif">from the Noun Project</text></svg>